<?xml version="1.0" encoding="us-ascii" standalone="no"?><svg xmlns="http://www.w3.org/2000/svg" xmlns:xlink="http://www.w3.org/1999/xlink" contentStyleType="text/css" height="627px" preserveAspectRatio="none" style="width:814px;height:627px;background:#FFFFFF;" version="1.1" viewBox="0 0 814 627" width="814px" zoomAndPan="magnify"><defs/><g><!--cluster Sistema de Asistencia--><g id="cluster_Sistema de Asistencia"><rect fill="none" height="614" rx="2.5" ry="2.5" style="stroke:#181818;stroke-width:1.0;" width="683" x="125" y="7"/><text fill="#000000" font-family="sans-serif" font-size="14" font-weight="bold" lengthAdjust="spacing" textLength="150" x="391.5" y="23.9659">Sistema de Asistencia</text></g><g id="elem_UC1"><ellipse cx="271.8803" cy="81.9761" fill="#F1F1F1" rx="75.3803" ry="17.4761" style="stroke:#181818;stroke-width:0.5;"/><text fill="#000000" font-family="sans-serif" font-size="14" lengthAdjust="spacing" textLength="90" x="223.8803" y="86.709">Iniciar sesi&#243;n</text></g><g id="elem_UC2"><ellipse cx="271.9395" cy="161.1879" fill="#F1F1F1" rx="118.9395" ry="26.1879" style="stroke:#181818;stroke-width:0.5;"/><text fill="#000000" font-family="sans-serif" font-size="14" lengthAdjust="spacing" textLength="199" x="169.8582" y="165.7624">Consultar asistencia personal</text></g><g id="elem_UC3"><ellipse cx="272.1943" cy="259.1389" fill="#F1F1F1" rx="131.1943" ry="28.6389" style="stroke:#181818;stroke-width:0.5;"/><text fill="#000000" font-family="sans-serif" font-size="14" lengthAdjust="spacing" textLength="226" x="158.9654" y="262.6851">Visualizar estad&#237;sticas personales</text></g><g id="elem_UC4"><ellipse cx="272.1285" cy="347.0257" fill="#F1F1F1" rx="110.6285" ry="24.5257" style="stroke:#181818;stroke-width:0.5;"/><text fill="#000000" font-family="sans-serif" font-size="14" lengthAdjust="spacing" textLength="180" x="179.1285" y="351.7587">Ver calendario de sesiones</text></g><g id="elem_UC5"><ellipse cx="272.2473" cy="424.9495" fill="#F1F1F1" rx="77.7473" ry="17.9495" style="stroke:#181818;stroke-width:0.5;"/><text fill="#000000" font-family="sans-serif" font-size="14" lengthAdjust="spacing" textLength="97" x="220.7473" y="429.6824">Recibir alertas</text></g><g id="elem_UC6"><ellipse cx="272.005" cy="499.101" fill="#F1F1F1" rx="93.505" ry="21.101" style="stroke:#181818;stroke-width:0.5;"/><text fill="#000000" font-family="sans-serif" font-size="14" lengthAdjust="spacing" textLength="139" x="199.505" y="503.834">Solicitar justificaci&#243;n</text></g><g id="elem_UC7"><ellipse cx="271.9273" cy="579.7855" fill="#F1F1F1" rx="111.9273" ry="24.7855" style="stroke:#181818;stroke-width:0.5;"/><text fill="#000000" font-family="sans-serif" font-size="14" lengthAdjust="spacing" textLength="183" x="177.4273" y="584.5184">Ver contenidos de sesiones</text></g><g id="elem_UC2_1"><ellipse cx="657.2398" cy="152.248" fill="#F1F1F1" rx="96.7398" ry="21.748" style="stroke:#181818;stroke-width:0.5;"/><text fill="#000000" font-family="sans-serif" font-size="14" lengthAdjust="spacing" textLength="147" x="580.7398" y="156.9809">Ver historial completo</text></g><g id="elem_UC2_2"><ellipse cx="657.1669" cy="70.1334" fill="#F1F1F1" rx="113.6669" ry="25.1334" style="stroke:#181818;stroke-width:0.5;"/><text fill="#000000" font-family="sans-serif" font-size="14" lengthAdjust="spacing" textLength="187" x="560.6669" y="74.8663">Verificar registro por sesi&#243;n</text></g><g id="elem_UC3_1"><ellipse cx="657.0347" cy="411.9069" fill="#F1F1F1" rx="102.5347" ry="22.9069" style="stroke:#181818;stroke-width:0.5;"/><text fill="#000000" font-family="sans-serif" font-size="14" lengthAdjust="spacing" textLength="161" x="573.5347" y="416.6399">Ver porcentaje personal</text></g><g id="elem_UC3_2"><ellipse cx="656.9144" cy="323.8829" fill="#F1F1F1" rx="134.9144" ry="29.3829" style="stroke:#181818;stroke-width:0.5;"/><text fill="#000000" font-family="sans-serif" font-size="14" lengthAdjust="spacing" textLength="234" x="539.9144" y="327.3149">Comparar con promedio del grupo</text></g><g id="elem_UC3_3"><ellipse cx="656.9151" cy="233.983" fill="#F1F1F1" rx="115.4151" ry="25.483" style="stroke:#181818;stroke-width:0.5;"/><text fill="#000000" font-family="sans-serif" font-size="14" lengthAdjust="spacing" textLength="191" x="558.4151" y="238.716">Ver proyecci&#243;n de asistencia</text></g><g id="elem_UC5_1"><ellipse cx="656.8629" cy="582.0726" fill="#F1F1F1" rx="100.8629" ry="22.5726" style="stroke:#181818;stroke-width:0.5;"/><text fill="#000000" font-family="sans-serif" font-size="14" lengthAdjust="spacing" textLength="157" x="575.3629" y="586.8056">Recibir alerta de riesgo</text></g><g id="elem_UC5_2"><ellipse cx="656.8683" cy="497.1737" fill="#F1F1F1" rx="123.8683" ry="27.1737" style="stroke:#181818;stroke-width:0.5;"/><text fill="#000000" font-family="sans-serif" font-size="14" lengthAdjust="spacing" textLength="210" x="550.303" y="501.3346">Recibir notificaci&#243;n de cambios</text></g><!--entity estudiante--><g id="elem_estudiante"><ellipse cx="42" cy="316" fill="#F1F1F1" rx="8" ry="8" style="stroke:#181818;stroke-width:0.5;"/><path d="M42,324 L42,351 M29,332 L55,332 M42,351 L29,366 M42,351 L55,366 " fill="none" style="stroke:#181818;stroke-width:0.5;"/><text fill="#000000" font-family="sans-serif" font-size="14" lengthAdjust="spacing" textLength="72" x="6" y="382.4659">Estudiante</text></g><!--link UC2 to UC2_1--><g id="link_UC2_UC2_1"><path d="M390.52,158.24 C445.16,156.95 503.3017,155.5908 554.8417,154.3808 " fill="none" id="UC2-to-UC2_1" style="stroke:#181818;stroke-width:1.0;stroke-dasharray:7.0,7.0;"/><polygon fill="#181818" points="560.84,154.24,551.7486,150.4523,555.8414,154.3574,551.9364,158.4501,560.84,154.24" style="stroke:#181818;stroke-width:1.0;"/><text fill="#000000" font-family="sans-serif" font-size="13" lengthAdjust="spacing" textLength="57" x="434" y="151.897">&#171;include&#187;</text></g><!--link UC2 to UC2_2--><g id="link_UC2_UC2_2"><path d="M353.29,141.92 C419.75,126.13 507.7324,105.2266 573.2424,89.6666 " fill="none" id="UC2-to-UC2_2" style="stroke:#181818;stroke-width:1.0;stroke-dasharray:7.0,7.0;"/><polygon fill="#181818" points="579.08,88.28,569.3992,86.4681,574.2153,89.4355,571.248,94.2516,579.08,88.28" style="stroke:#181818;stroke-width:1.0;"/><text fill="#000000" font-family="sans-serif" font-size="13" lengthAdjust="spacing" textLength="57" x="434" y="106.897">&#171;include&#187;</text></g><!--link UC3 to UC3_1--><g id="link_UC3_UC3_1"><path d="M347.26,282.39 C365.76,289 385.35,296.68 403,305 C417.07,311.63 419.49,315.31 433,323 C472.06,345.23 480.53,353.67 522,371 C543.55,380 562.0286,386.3106 583.8986,392.8106 " fill="none" id="UC3-to-UC3_1" style="stroke:#181818;stroke-width:1.0;stroke-dasharray:7.0,7.0;"/><polygon fill="#181818" points="589.65,394.52,582.1625,388.1217,584.8572,393.0955,579.8834,395.7902,589.65,394.52" style="stroke:#181818;stroke-width:1.0;"/><text fill="#000000" font-family="sans-serif" font-size="13" lengthAdjust="spacing" textLength="57" x="434" y="318.897">&#171;include&#187;</text></g><!--reverse link UC3 to UC3_2--><g id="link_UC3_UC3_2"><path d="M381.8054,277.4642 C435.6454,286.6042 495.56,296.77 549.87,305.99 " fill="none" id="UC3-backto-UC3_2" style="stroke:#181818;stroke-width:1.0;stroke-dasharray:7.0,7.0;"/><polygon fill="#181818" points="375.89,276.46,384.0936,281.9099,380.8195,277.2968,385.4325,274.0227,375.89,276.46" style="stroke:#181818;stroke-width:1.0;"/><text fill="#000000" font-family="sans-serif" font-size="13" lengthAdjust="spacing" textLength="56" x="434.5" y="283.897">&#171;extend&#187;</text></g><!--reverse link UC3 to UC3_3--><g id="link_UC3_UC3_3"><path d="M403.5972,250.4781 C451.4172,247.3481 499.62,244.21 545.98,241.18 " fill="none" id="UC3-backto-UC3_3" style="stroke:#181818;stroke-width:1.0;stroke-dasharray:7.0,7.0;"/><polygon fill="#181818" points="397.61,250.87,406.852,254.2736,402.5993,250.5434,406.3295,246.2907,397.61,250.87" style="stroke:#181818;stroke-width:1.0;"/><text fill="#000000" font-family="sans-serif" font-size="13" lengthAdjust="spacing" textLength="56" x="434.5" y="241.897">&#171;extend&#187;</text></g><!--link UC5 to UC5_1--><g id="link_UC5_UC5_1"><path d="M338.39,434.42 C360.14,439.62 383.71,447.65 403,460 C420.54,471.23 416.7,483.03 433,496 C467.68,523.6 480.88,524.46 522,541 C544.34,549.99 563.6978,556.4534 586.0778,563.0934 " fill="none" id="UC5-to-UC5_1" style="stroke:#181818;stroke-width:1.0;stroke-dasharray:7.0,7.0;"/><polygon fill="#181818" points="591.83,564.8,584.3395,558.4053,587.0365,563.3778,582.064,566.0748,591.83,564.8" style="stroke:#181818;stroke-width:1.0;"/><text fill="#000000" font-family="sans-serif" font-size="13" lengthAdjust="spacing" textLength="57" x="434" y="491.897">&#171;include&#187;</text></g><!--link UC5 to UC5_2--><g id="link_UC5_UC5_2"><path d="M329.56,437.1 C360.14,443.53 398.59,451.44 433,458 C474.02,465.82 513.4974,472.8395 552.5474,479.5795 " fill="none" id="UC5-to-UC5_2" style="stroke:#181818;stroke-width:1.0;stroke-dasharray:7.0,7.0;"/><polygon fill="#181818" points="558.46,480.6,550.2715,475.1275,553.5329,479.7496,548.9108,483.011,558.46,480.6" style="stroke:#181818;stroke-width:1.0;"/><text fill="#000000" font-family="sans-serif" font-size="13" lengthAdjust="spacing" textLength="57" x="434" y="453.897">&#171;include&#187;</text></g><!--link estudiante to UC1--><g id="link_estudiante_UC1"><path d="M44.28,307.38 C48.16,255.85 62.87,166.58 117,117 C138.53,97.28 162.867,88.8039 190.877,84.5839 " fill="none" id="estudiante-to-UC1" style="stroke:#181818;stroke-width:1.0;"/><polygon fill="#181818" points="196.81,83.69,187.3145,81.0755,191.8658,84.4349,188.5064,88.9862,196.81,83.69" style="stroke:#181818;stroke-width:1.0;"/></g><!--link estudiante to UC2--><g id="link_estudiante_UC2"><path d="M55.99,307.2 C67.61,277.41 87.43,237.7 117,213 C135.95,197.17 154.2445,187.9771 177.6045,180.2371 " fill="none" id="estudiante-to-UC2" style="stroke:#181818;stroke-width:1.0;"/><polygon fill="#181818" points="183.3,178.35,173.4987,177.3837,178.5537,179.9226,176.0148,184.9777,183.3,178.35" style="stroke:#181818;stroke-width:1.0;"/></g><!--link estudiante to UC3--><g id="link_estudiante_UC3"><path d="M78.3,324.81 C90.29,317.86 103.96,310.56 117,305 C138.94,295.64 157.6606,289.116 180.5106,282.296 " fill="none" id="estudiante-to-UC3" style="stroke:#181818;stroke-width:1.0;"/><polygon fill="#181818" points="186.26,280.58,176.4919,279.3211,181.4689,282.01,178.7799,286.9869,186.26,280.58" style="stroke:#181818;stroke-width:1.0;"/></g><!--link estudiante to UC4--><g id="link_estudiante_UC4"><path d="M78.13,347 C100.67,347 125.29,347 155.49,347 " fill="none" id="estudiante-to-UC4" style="stroke:#181818;stroke-width:1.0;"/><polygon fill="#181818" points="161.49,347,152.49,343,156.49,347,152.49,351,161.49,347" style="stroke:#181818;stroke-width:1.0;"/></g><!--link estudiante to UC5--><g id="link_estudiante_UC5"><path d="M78.11,369.66 C90.09,376.63 103.79,383.83 117,389 C146.15,400.4 174.001,407.591 202.441,413.391 " fill="none" id="estudiante-to-UC5" style="stroke:#181818;stroke-width:1.0;"/><polygon fill="#181818" points="208.32,414.59,200.3008,408.8722,203.4208,413.5909,198.7022,416.7109,208.32,414.59" style="stroke:#181818;stroke-width:1.0;"/></g><!--link estudiante to UC6--><g id="link_estudiante_UC6"><path d="M59.69,386.55 C72.06,411.2 91.23,441.62 117,460 C137.66,474.73 157.5177,482.5432 181.9677,488.2632 " fill="none" id="estudiante-to-UC6" style="stroke:#181818;stroke-width:1.0;"/><polygon fill="#181818" points="187.81,489.63,179.9578,483.685,182.9415,488.491,178.1354,491.4747,187.81,489.63" style="stroke:#181818;stroke-width:1.0;"/></g><!--link estudiante to UC7--><g id="link_estudiante_UC7"><path d="M47.92,386.7 C55.37,429.79 73.57,497.68 117,537 C133.05,551.53 147.8859,559.4336 168.7259,565.8536 " fill="none" id="estudiante-to-UC7" style="stroke:#181818;stroke-width:1.0;"/><polygon fill="#181818" points="174.46,567.62,167.0365,561.1476,169.6816,566.148,164.6812,568.793,174.46,567.62" style="stroke:#181818;stroke-width:1.0;"/></g><!--SRC=[RLFBRjmm3BpxAuYzPu7OSG8KYmM2e8TU6xJN1ICp3WDPD2GPw0Fzf9xw2VcnqexjUAMzMPmPSZYoB3r7Y0AUsvS83NioaSKL1Pee7dQVGnmQHXTf1nY0rcDHZ5HqhINOFNA8r24q1FTX_7Q6SGU_2u0XaC6Wd2-EjUWXKE2tVsvgz-tXUajv41S66vM4QnVeoGTnQ6T1kHLyvp2WvL-gK6VOlFqDaHLQHHHcMNKc8mz6GTUWPnbTZwR4hUoRBVih6NvYzMJ9HrmezPRoA5QN6us_3khWMJsOpPAtsN3H11qt4YuClrDsAdZHECGpMfLslQKeInodwuGxJVVWgLMD5-WbpRmybHT6AC-GY_XAQUJLARcbhaUFqnRGU-cecKAqqFgXbrLKPXEy_2Gp1JEkZPi_PPPKYQ_pw4UHPmhjCgC-DxQmdMokO1GPx9vOrfjRrjSaOBy_lgS8d-1mO6ViqD3ncA1bXaw4QYPK5-KL7FRxzoGcb7xejaq6LYauuVNSkhxO-WDDdVqfYeyt2bTNn-cDPQKoBrLvwIOlrNdfDY_T5Vy1]--></g></svg>