<?xml version="1.0" encoding="us-ascii" standalone="no"?><svg xmlns="http://www.w3.org/2000/svg" xmlns:xlink="http://www.w3.org/1999/xlink" contentStyleType="text/css" height="650px" preserveAspectRatio="none" style="width:365px;height:650px;background:#FFFFFF;" version="1.1" viewBox="0 0 365 650" width="365px" zoomAndPan="magnify"><defs/><g><!--class Profesor--><g id="elem_Profesor"><rect fill="#F1F1F1" height="48" id="Profesor" rx="2.5" ry="2.5" style="stroke:#181818;stroke-width:0.5;" width="88" x="214" y="7"/><ellipse cx="229" cy="23" fill="#ADD1B2" rx="11" ry="11" style="stroke:#181818;stroke-width:1.0;"/><path d="M231.9688,28.6406 Q231.3906,28.9375 230.75,29.0781 Q230.1094,29.2344 229.4063,29.2344 Q226.9063,29.2344 225.5781,27.5938 Q224.2656,25.9375 224.2656,22.8125 Q224.2656,19.6875 225.5781,18.0313 Q226.9063,16.375 229.4063,16.375 Q230.1094,16.375 230.75,16.5313 Q231.4063,16.6875 231.9688,16.9844 L231.9688,19.7031 Q231.3438,19.125 230.75,18.8594 Q230.1563,18.5781 229.5313,18.5781 Q228.1875,18.5781 227.5,19.6563 Q226.8125,20.7188 226.8125,22.8125 Q226.8125,24.9063 227.5,25.9844 Q228.1875,27.0469 229.5313,27.0469 Q230.1563,27.0469 230.75,26.7813 Q231.3438,26.5 231.9688,25.9219 L231.9688,28.6406 Z " fill="#000000"/><text fill="#000000" font-family="sans-serif" font-size="14" lengthAdjust="spacing" textLength="56" x="243" y="28.432">Profesor</text><line style="stroke:#181818;stroke-width:0.5;" x1="215" x2="301" y1="39" y2="39"/><line style="stroke:#181818;stroke-width:0.5;" x1="215" x2="301" y1="47" y2="47"/></g><!--class Asignatura--><g id="elem_Asignatura"><rect fill="#F1F1F1" height="48" id="Asignatura" rx="2.5" ry="2.5" style="stroke:#181818;stroke-width:0.5;" width="106" x="205" y="134"/><ellipse cx="220" cy="150" fill="#ADD1B2" rx="11" ry="11" style="stroke:#181818;stroke-width:1.0;"/><path d="M222.9688,155.6406 Q222.3906,155.9375 221.75,156.0781 Q221.1094,156.2344 220.4063,156.2344 Q217.9063,156.2344 216.5781,154.5938 Q215.2656,152.9375 215.2656,149.8125 Q215.2656,146.6875 216.5781,145.0313 Q217.9063,143.375 220.4063,143.375 Q221.1094,143.375 221.75,143.5313 Q222.4063,143.6875 222.9688,143.9844 L222.9688,146.7031 Q222.3438,146.125 221.75,145.8594 Q221.1563,145.5781 220.5313,145.5781 Q219.1875,145.5781 218.5,146.6563 Q217.8125,147.7188 217.8125,149.8125 Q217.8125,151.9063 218.5,152.9844 Q219.1875,154.0469 220.5313,154.0469 Q221.1563,154.0469 221.75,153.7813 Q222.3438,153.5 222.9688,152.9219 L222.9688,155.6406 Z " fill="#000000"/><text fill="#000000" font-family="sans-serif" font-size="14" lengthAdjust="spacing" textLength="74" x="234" y="155.432">Asignatura</text><line style="stroke:#181818;stroke-width:0.5;" x1="206" x2="310" y1="166" y2="166"/><line style="stroke:#181818;stroke-width:0.5;" x1="206" x2="310" y1="174" y2="174"/></g><!--class Estudiante--><g id="elem_Estudiante"><rect fill="#F1F1F1" height="48" id="Estudiante" rx="2.5" ry="2.5" style="stroke:#181818;stroke-width:0.5;" width="104" x="7" y="134"/><ellipse cx="22" cy="150" fill="#ADD1B2" rx="11" ry="11" style="stroke:#181818;stroke-width:1.0;"/><path d="M24.9688,155.6406 Q24.3906,155.9375 23.75,156.0781 Q23.1094,156.2344 22.4063,156.2344 Q19.9063,156.2344 18.5781,154.5938 Q17.2656,152.9375 17.2656,149.8125 Q17.2656,146.6875 18.5781,145.0313 Q19.9063,143.375 22.4063,143.375 Q23.1094,143.375 23.75,143.5313 Q24.4063,143.6875 24.9688,143.9844 L24.9688,146.7031 Q24.3438,146.125 23.75,145.8594 Q23.1563,145.5781 22.5313,145.5781 Q21.1875,145.5781 20.5,146.6563 Q19.8125,147.7188 19.8125,149.8125 Q19.8125,151.9063 20.5,152.9844 Q21.1875,154.0469 22.5313,154.0469 Q23.1563,154.0469 23.75,153.7813 Q24.3438,153.5 24.9688,152.9219 L24.9688,155.6406 Z " fill="#000000"/><text fill="#000000" font-family="sans-serif" font-size="14" lengthAdjust="spacing" textLength="72" x="36" y="155.432">Estudiante</text><line style="stroke:#181818;stroke-width:0.5;" x1="8" x2="110" y1="166" y2="166"/><line style="stroke:#181818;stroke-width:0.5;" x1="8" x2="110" y1="174" y2="174"/></g><!--class Sesion--><g id="elem_Sesion"><rect fill="#F1F1F1" height="48" id="Sesion" rx="2.5" ry="2.5" style="stroke:#181818;stroke-width:0.5;" width="76" x="112" y="341"/><ellipse cx="127" cy="357" fill="#ADD1B2" rx="11" ry="11" style="stroke:#181818;stroke-width:1.0;"/><path d="M129.9688,362.6406 Q129.3906,362.9375 128.75,363.0781 Q128.1094,363.2344 127.4063,363.2344 Q124.9063,363.2344 123.5781,361.5938 Q122.2656,359.9375 122.2656,356.8125 Q122.2656,353.6875 123.5781,352.0313 Q124.9063,350.375 127.4063,350.375 Q128.1094,350.375 128.75,350.5313 Q129.4063,350.6875 129.9688,350.9844 L129.9688,353.7031 Q129.3438,353.125 128.75,352.8594 Q128.1563,352.5781 127.5313,352.5781 Q126.1875,352.5781 125.5,353.6563 Q124.8125,354.7188 124.8125,356.8125 Q124.8125,358.9063 125.5,359.9844 Q126.1875,361.0469 127.5313,361.0469 Q128.1563,361.0469 128.75,360.7813 Q129.3438,360.5 129.9688,359.9219 L129.9688,362.6406 Z " fill="#000000"/><text fill="#000000" font-family="sans-serif" font-size="14" lengthAdjust="spacing" textLength="44" x="141" y="362.432">Sesion</text><line style="stroke:#181818;stroke-width:0.5;" x1="113" x2="187" y1="373" y2="373"/><line style="stroke:#181818;stroke-width:0.5;" x1="113" x2="187" y1="381" y2="381"/></g><!--class Asistencia--><g id="elem_Asistencia"><rect fill="#F1F1F1" height="48" id="Asistencia" rx="2.5" ry="2.5" style="stroke:#181818;stroke-width:0.5;" width="100" x="100" y="468"/><ellipse cx="115" cy="484" fill="#ADD1B2" rx="11" ry="11" style="stroke:#181818;stroke-width:1.0;"/><path d="M117.9688,489.6406 Q117.3906,489.9375 116.75,490.0781 Q116.1094,490.2344 115.4063,490.2344 Q112.9063,490.2344 111.5781,488.5938 Q110.2656,486.9375 110.2656,483.8125 Q110.2656,480.6875 111.5781,479.0313 Q112.9063,477.375 115.4063,477.375 Q116.1094,477.375 116.75,477.5313 Q117.4063,477.6875 117.9688,477.9844 L117.9688,480.7031 Q117.3438,480.125 116.75,479.8594 Q116.1563,479.5781 115.5313,479.5781 Q114.1875,479.5781 113.5,480.6563 Q112.8125,481.7188 112.8125,483.8125 Q112.8125,485.9063 113.5,486.9844 Q114.1875,488.0469 115.5313,488.0469 Q116.1563,488.0469 116.75,487.7813 Q117.3438,487.5 117.9688,486.9219 L117.9688,489.6406 Z " fill="#000000"/><text fill="#000000" font-family="sans-serif" font-size="14" lengthAdjust="spacing" textLength="68" x="129" y="489.432">Asistencia</text><line style="stroke:#181818;stroke-width:0.5;" x1="101" x2="199" y1="500" y2="500"/><line style="stroke:#181818;stroke-width:0.5;" x1="101" x2="199" y1="508" y2="508"/></g><!--class EstadisticaAsistencia--><g id="elem_EstadisticaAsistencia"><rect fill="#F1F1F1" height="48" id="EstadisticaAsistencia" rx="2.5" ry="2.5" style="stroke:#181818;stroke-width:0.5;" width="172" x="146" y="595"/><ellipse cx="161" cy="611" fill="#ADD1B2" rx="11" ry="11" style="stroke:#181818;stroke-width:1.0;"/><path d="M163.9688,616.6406 Q163.3906,616.9375 162.75,617.0781 Q162.1094,617.2344 161.4063,617.2344 Q158.9063,617.2344 157.5781,615.5938 Q156.2656,613.9375 156.2656,610.8125 Q156.2656,607.6875 157.5781,606.0313 Q158.9063,604.375 161.4063,604.375 Q162.1094,604.375 162.75,604.5313 Q163.4063,604.6875 163.9688,604.9844 L163.9688,607.7031 Q163.3438,607.125 162.75,606.8594 Q162.1563,606.5781 161.5313,606.5781 Q160.1875,606.5781 159.5,607.6563 Q158.8125,608.7188 158.8125,610.8125 Q158.8125,612.9063 159.5,613.9844 Q160.1875,615.0469 161.5313,615.0469 Q162.1563,615.0469 162.75,614.7813 Q163.3438,614.5 163.9688,613.9219 L163.9688,616.6406 Z " fill="#000000"/><text fill="#000000" font-family="sans-serif" font-size="14" lengthAdjust="spacing" textLength="140" x="175" y="616.432">EstadisticaAsistencia</text><line style="stroke:#181818;stroke-width:0.5;" x1="147" x2="317" y1="627" y2="627"/><line style="stroke:#181818;stroke-width:0.5;" x1="147" x2="317" y1="635" y2="635"/></g><!--link Profesor to Asignatura--><g id="link_Profesor_Asignatura"><path codeLine="2" d="M258,55.22 C258,77.67 258,111.5 258,133.91 " fill="none" id="Profesor-Asignatura" style="stroke:#181818;stroke-width:1.0;"/><polygon fill="#000000" points="263,99.853,265.9389,90.8079,260.0611,90.8079,263,99.853" style="stroke:#000000;stroke-width:1.0;"/><text fill="#000000" font-family="sans-serif" font-size="13" lengthAdjust="spacing" textLength="47" x="272" y="99.897">imparte</text></g><!--link Estudiante to Asignatura--><g id="link_Estudiante_Asignatura"><path codeLine="3" d="M111.02,158 C139.93,158 175.82,158 204.89,158 " fill="none" id="Estudiante-Asignatura" style="stroke:#181818;stroke-width:1.0;"/><polygon fill="#000000" points="138.5,145.853,129.4549,142.9141,129.4549,148.7919,138.5,145.853" style="stroke:#000000;stroke-width:1.0;"/><text fill="#000000" font-family="sans-serif" font-size="13" lengthAdjust="spacing" textLength="44" x="142.5" y="150.897">inscrito</text></g><!--link Asignatura to Sesion--><g id="link_Asignatura_Sesion"><path codeLine="5" d="M227.44,182.24 C209.44,197.55 187.77,219.14 175,243 C158.29,274.2 152.74,315.45 150.9,340.83 " fill="none" id="Asignatura-Sesion" style="stroke:#181818;stroke-width:1.0;"/><polygon fill="#000000" points="177.8267,257.356,184.405,250.4874,179.1114,247.9326,177.8267,257.356" style="stroke:#000000;stroke-width:1.0;"/><text fill="#000000" font-family="sans-serif" font-size="13" lengthAdjust="spacing" textLength="97" x="189" y="257.897">conformada por</text></g><!--link Sesion to Asistencia--><g id="link_Sesion_Asistencia"><path codeLine="6" d="M150,389.22 C150,411.67 150,445.5 150,467.91 " fill="none" id="Sesion-Asistencia" style="stroke:#181818;stroke-width:1.0;"/><polygon fill="#000000" points="155,433.853,157.9389,424.8079,152.0611,424.8079,155,433.853" style="stroke:#000000;stroke-width:1.0;"/><text fill="#000000" font-family="sans-serif" font-size="13" lengthAdjust="spacing" textLength="30" x="164" y="433.897">tiene</text></g><!--link Estudiante to Asistencia--><g id="link_Estudiante_Asistencia"><path codeLine="7" d="M60.04,182.14 C62.49,224.3 70.42,316.03 95,389 C104.63,417.6 121.86,447.7 134.47,467.73 " fill="none" id="Estudiante-Asistencia" style="stroke:#181818;stroke-width:1.0;"/><polygon fill="#000000" points="81.261,306.6914,81.8238,297.1975,76.1359,298.6799,81.261,306.6914" style="stroke:#000000;stroke-width:1.0;"/><text fill="#000000" font-family="sans-serif" font-size="13" lengthAdjust="spacing" textLength="46" x="89" y="306.897">registra</text></g><!--link Asistencia to EstadisticaAsistencia--><g id="link_Asistencia_EstadisticaAsistencia"><path codeLine="9" d="M165.23,516.22 C179.96,538.67 202.15,572.5 216.85,594.91 " fill="none" id="Asistencia-EstadisticaAsistencia" style="stroke:#181818;stroke-width:1.0;"/><polygon fill="#000000" points="202.7425,560.0337,200.2386,550.8587,195.3239,554.0827,202.7425,560.0337" style="stroke:#000000;stroke-width:1.0;"/><text fill="#000000" font-family="sans-serif" font-size="13" lengthAdjust="spacing" textLength="42" x="209" y="560.897">genera</text></g><!--link Asignatura to EstadisticaAsistencia--><g id="link_Asignatura_EstadisticaAsistencia"><path codeLine="10" d="M281.32,182.28 C296.32,199.77 313,225.16 313,251.5 C313,251.5 313,251.5 313,493 C313,533.6 282.53,571.42 258.97,594.59 " fill="none" id="Asignatura-EstadisticaAsistencia" style="stroke:#181818;stroke-width:1.0;"/><polygon fill="#000000" points="317.7294,370.3457,321.1536,361.4729,315.2843,361.1548,317.7294,370.3457" style="stroke:#000000;stroke-width:1.0;"/><text fill="#000000" font-family="sans-serif" font-size="13" lengthAdjust="spacing" textLength="30" x="327" y="370.397">tiene</text></g><!--SRC=[VOuz3i8m38NtdC8No0KO8Z6m8t42At4Z3tKgnxq_Jg5I08dHVZ_VksjRg3S5Y2K2N3jNGTiLuGAyRgX6a23Skks5KVoA6hziqhEoDO0KmgJ4qVYWpatSbPiiJLSi29lZKdWhRZkmtKWoZpvZ4eVEp5-JKlNBAI_cAGoavx3uXpD-HAhN7e5vun__kUC9]--></g></svg>