<?xml version="1.0" encoding="us-ascii" standalone="no"?><svg xmlns="http://www.w3.org/2000/svg" xmlns:xlink="http://www.w3.org/1999/xlink" contentStyleType="text/css" height="827px" preserveAspectRatio="none" style="width:1082px;height:827px;background:#FFFFFF;" version="1.1" viewBox="0 0 1082 827" width="1082px" zoomAndPan="magnify"><defs/><g><!--cluster Sistema de Asistencia--><g id="cluster_Sistema de Asistencia"><rect fill="none" height="814" rx="2.5" ry="2.5" style="stroke:#181818;stroke-width:1.0;" width="967" x="109" y="7"/><text fill="#000000" font-family="sans-serif" font-size="14" font-weight="bold" lengthAdjust="spacing" textLength="150" x="517.5" y="23.9659">Sistema de Asistencia</text></g><g id="elem_UC1"><ellipse cx="253.8803" cy="150.9761" fill="#F1F1F1" rx="75.3803" ry="17.4761" style="stroke:#181818;stroke-width:0.5;"/><text fill="#000000" font-family="sans-serif" font-size="14" lengthAdjust="spacing" textLength="90" x="205.8803" y="155.709">Iniciar sesi&#243;n</text></g><g id="elem_UC2"><ellipse cx="253.9683" cy="223.0937" fill="#F1F1F1" rx="83.4683" ry="19.0937" style="stroke:#181818;stroke-width:0.5;"/><text fill="#000000" font-family="sans-serif" font-size="14" lengthAdjust="spacing" textLength="113" x="194.4683" y="227.8266">Gestionar cursos</text></g><g id="elem_UC3"><ellipse cx="254.1201" cy="298.124" fill="#F1F1F1" rx="91.1201" ry="20.624" style="stroke:#181818;stroke-width:0.5;"/><text fill="#000000" font-family="sans-serif" font-size="14" lengthAdjust="spacing" textLength="133" x="184.6201" y="302.857">Registrar asistencia</text></g><g id="elem_UC4"><ellipse cx="254.1483" cy="376.8297" fill="#F1F1F1" rx="97.1483" ry="21.8297" style="stroke:#181818;stroke-width:0.5;"/><text fill="#000000" font-family="sans-serif" font-size="14" lengthAdjust="spacing" textLength="148" x="177.1483" y="381.5626">Visualizar estad&#237;sticas</text></g><g id="elem_UC5"><ellipse cx="254.1483" cy="455.8297" fill="#F1F1F1" rx="97.1483" ry="21.8297" style="stroke:#181818;stroke-width:0.5;"/><text fill="#000000" font-family="sans-serif" font-size="14" lengthAdjust="spacing" textLength="148" x="177.1483" y="460.5626">Gestionar estudiantes</text></g><g id="elem_UC6"><ellipse cx="254.015" cy="534.203" fill="#F1F1F1" rx="91.515" ry="20.703" style="stroke:#181818;stroke-width:0.5;"/><text fill="#000000" font-family="sans-serif" font-size="14" lengthAdjust="spacing" textLength="134" x="184.015" y="538.936">Programar sesiones</text></g><g id="elem_UC7"><ellipse cx="254.0837" cy="608.8167" fill="#F1F1F1" rx="84.5837" ry="19.3167" style="stroke:#181818;stroke-width:0.5;"/><text fill="#000000" font-family="sans-serif" font-size="14" lengthAdjust="spacing" textLength="116" x="193.0837" y="613.5497">Generar reportes</text></g><g id="elem_UC8"><ellipse cx="254.1031" cy="689.2206" fill="#F1F1F1" rx="114.1031" ry="25.2206" style="stroke:#181818;stroke-width:0.5;"/><text fill="#000000" font-family="sans-serif" font-size="14" lengthAdjust="spacing" textLength="188" x="157.1031" y="693.9536">Modificar asistencia pasada</text></g><g id="elem_UC9"><ellipse cx="253.8866" cy="777.1773" fill="#F1F1F1" rx="128.8866" ry="28.1773" style="stroke:#181818;stroke-width:0.5;"/><text fill="#000000" font-family="sans-serif" font-size="14" lengthAdjust="spacing" textLength="221" x="142.7566" y="780.9172">Configurar par&#225;metros del curso</text></g><g id="elem_UC2_1"><ellipse cx="631.3336" cy="222.9667" fill="#F1F1F1" rx="90.3336" ry="20.4667" style="stroke:#181818;stroke-width:0.5;"/><text fill="#000000" font-family="sans-serif" font-size="14" lengthAdjust="spacing" textLength="131" x="562.8336" y="227.6997">A&#241;adir nuevo curso</text></g><g id="elem_UC2_2"><ellipse cx="631.4151" cy="141.983" fill="#F1F1F1" rx="115.4151" ry="25.483" style="stroke:#181818;stroke-width:0.5;"/><text fill="#000000" font-family="sans-serif" font-size="14" lengthAdjust="spacing" textLength="191" x="532.9151" y="146.716">Editar informaci&#243;n del curso</text></g><g id="elem_UC2_3"><ellipse cx="631.7473" cy="62.9495" fill="#F1F1F1" rx="77.7473" ry="17.9495" style="stroke:#181818;stroke-width:0.5;"/><text fill="#000000" font-family="sans-serif" font-size="14" lengthAdjust="spacing" textLength="97" x="580.2473" y="67.6824">Archivar curso</text></g><g id="elem_UC3_1"><ellipse cx="631.3691" cy="295.9759" fill="#F1F1F1" rx="62.3691" ry="16.9759" style="stroke:#181818;stroke-width:0.5;"/><text fill="#000000" font-family="sans-serif" font-size="14" lengthAdjust="spacing" textLength="69" x="593.8691" y="300.7088">Pasar lista</text></g><g id="elem_UC3_2"><ellipse cx="969.3336" cy="295.9667" fill="#F1F1F1" rx="90.3336" ry="20.4667" style="stroke:#181818;stroke-width:0.5;"/><text fill="#000000" font-family="sans-serif" font-size="14" lengthAdjust="spacing" textLength="131" x="900.8336" y="300.6997">Importar asistencia</text></g><g id="elem_UC4_1"><ellipse cx="631.4151" cy="530.983" fill="#F1F1F1" rx="115.4151" ry="25.483" style="stroke:#181818;stroke-width:0.5;"/><text fill="#000000" font-family="sans-serif" font-size="14" lengthAdjust="spacing" textLength="191" x="532.9151" y="535.716">Ver porcentajes individuales</text></g><g id="elem_UC4_2"><ellipse cx="631.7398" cy="449.248" fill="#F1F1F1" rx="96.7398" ry="21.748" style="stroke:#181818;stroke-width:0.5;"/><text fill="#000000" font-family="sans-serif" font-size="14" lengthAdjust="spacing" textLength="147" x="555.2398" y="453.9809">Ver porcentaje grupal</text></g><g id="elem_UC4_3"><ellipse cx="631.6483" cy="369.8297" fill="#F1F1F1" rx="97.1483" ry="21.8297" style="stroke:#181818;stroke-width:0.5;"/><text fill="#000000" font-family="sans-serif" font-size="14" lengthAdjust="spacing" textLength="148" x="554.6483" y="374.5626">Identificar tendencias</text></g><g id="elem_UC5_1"><ellipse cx="631.4695" cy="785.1939" fill="#F1F1F1" rx="86.4695" ry="19.6939" style="stroke:#181818;stroke-width:0.5;"/><text fill="#000000" font-family="sans-serif" font-size="14" lengthAdjust="spacing" textLength="121" x="567.9695" y="789.9269">A&#241;adir estudiante</text></g><g id="elem_UC5_2"><ellipse cx="631.3468" cy="701.7694" fill="#F1F1F1" rx="129.3468" ry="28.2694" style="stroke:#181818;stroke-width:0.5;"/><text fill="#000000" font-family="sans-serif" font-size="14" lengthAdjust="spacing" textLength="222" x="519.7982" y="705.4706">Editar informaci&#243;n de estudiante</text></g><g id="elem_UC5_3"><ellipse cx="631.6411" cy="614.8282" fill="#F1F1F1" rx="104.6411" ry="23.3282" style="stroke:#181818;stroke-width:0.5;"/><text fill="#000000" font-family="sans-serif" font-size="14" lengthAdjust="spacing" textLength="166" x="545.6411" y="619.5612">Dar de baja a estudiante</text></g><!--entity profesor--><g id="elem_profesor"><ellipse cx="34" cy="425" fill="#F1F1F1" rx="8" ry="8" style="stroke:#181818;stroke-width:0.5;"/><path d="M34,433 L34,460 M21,441 L47,441 M34,460 L21,475 M34,460 L47,475 " fill="none" style="stroke:#181818;stroke-width:0.5;"/><text fill="#000000" font-family="sans-serif" font-size="14" lengthAdjust="spacing" textLength="56" x="6" y="491.4659">Profesor</text></g><!--link UC2 to UC2_1--><g id="link_UC2_UC2_1"><path d="M337.87,223 C398.02,223 473.32,223 534.96,223 " fill="none" id="UC2-to-UC2_1" style="stroke:#181818;stroke-width:1.0;stroke-dasharray:7.0,7.0;"/><polygon fill="#181818" points="540.96,223,531.96,219,535.96,223,531.96,227,540.96,223" style="stroke:#181818;stroke-width:1.0;"/><text fill="#000000" font-family="sans-serif" font-size="13" lengthAdjust="spacing" textLength="57" x="414" y="218.897">&#171;include&#187;</text></g><!--link UC2 to UC2_2--><g id="link_UC2_UC2_2"><path d="M315.33,209.99 C378.46,196.37 472.1048,176.1648 542.4048,161.0048 " fill="none" id="UC2-to-UC2_2" style="stroke:#181818;stroke-width:1.0;stroke-dasharray:7.0,7.0;"/><polygon fill="#181818" points="548.27,159.74,538.629,157.7271,543.3824,160.794,540.3154,165.5473,548.27,159.74" style="stroke:#181818;stroke-width:1.0;"/><text fill="#000000" font-family="sans-serif" font-size="13" lengthAdjust="spacing" textLength="57" x="414" y="173.897">&#171;include&#187;</text></g><!--link UC2 to UC2_3--><g id="link_UC2_UC2_3"><path d="M321.27,211.61 C342.13,206.05 364.52,197.89 383,186 C400.23,174.91 397.27,164.13 413,151 C448.17,121.65 459.82,116.88 502,99 C525.14,89.19 545.9397,82.7268 568.9197,76.8068 " fill="none" id="UC2-to-UC2_3" style="stroke:#181818;stroke-width:1.0;stroke-dasharray:7.0,7.0;"/><polygon fill="#181818" points="574.73,75.31,565.0167,73.6817,569.8881,76.5574,567.0124,81.4288,574.73,75.31" style="stroke:#181818;stroke-width:1.0;"/><text fill="#000000" font-family="sans-serif" font-size="13" lengthAdjust="spacing" textLength="57" x="414" y="108.897">&#171;include&#187;</text></g><!--link UC3 to UC3_1--><g id="link_UC3_UC3_1"><path d="M345.42,297.52 C414.54,297.15 501.9801,296.6816 562.7401,296.3616 " fill="none" id="UC3-to-UC3_1" style="stroke:#181818;stroke-width:1.0;stroke-dasharray:7.0,7.0;"/><polygon fill="#181818" points="568.74,296.33,559.7191,292.3775,563.7401,296.3563,559.7612,300.3773,568.74,296.33" style="stroke:#181818;stroke-width:1.0;"/><text fill="#000000" font-family="sans-serif" font-size="13" lengthAdjust="spacing" textLength="57" x="414" y="292.897">&#171;include&#187;</text></g><!--reverse link UC3_1 to UC3_2--><g id="link_UC3_1_UC3_2"><path d="M700.13,296 C751.85,296 820.42,296 878.77,296 " fill="none" id="UC3_1-backto-UC3_2" style="stroke:#181818;stroke-width:1.0;stroke-dasharray:7.0,7.0;"/><polygon fill="#181818" points="694.13,296,703.13,300,699.13,296,703.13,292,694.13,296" style="stroke:#181818;stroke-width:1.0;"/><text fill="#000000" font-family="sans-serif" font-size="13" lengthAdjust="spacing" textLength="56" x="792" y="291.897">&#171;extend&#187;</text></g><!--link UC4 to UC4_1--><g id="link_UC4_UC4_1"><path d="M325.26,391.94 C344.75,397.78 365.38,405.63 383,416 C398.98,425.41 397.79,434.39 413,445 C449.03,470.14 461.31,471.44 502,488 C521.61,495.98 537.6156,501.7695 557.5256,508.3795 " fill="none" id="UC4-to-UC4_1" style="stroke:#181818;stroke-width:1.0;stroke-dasharray:7.0,7.0;"/><polygon fill="#181818" points="563.22,510.27,555.9388,503.638,558.4747,508.6946,553.4181,511.2305,563.22,510.27" style="stroke:#181818;stroke-width:1.0;"/><text fill="#000000" font-family="sans-serif" font-size="13" lengthAdjust="spacing" textLength="57" x="414" y="440.897">&#171;include&#187;</text></g><!--link UC4 to UC4_2--><g id="link_UC4_UC4_2"><path d="M328.74,391.14 C395.06,403.86 486.0274,421.3001 551.9974,433.9501 " fill="none" id="UC4-to-UC4_2" style="stroke:#181818;stroke-width:1.0;stroke-dasharray:7.0,7.0;"/><polygon fill="#181818" points="557.89,435.08,549.8043,429.4567,552.9795,434.1384,548.2977,437.3135,557.89,435.08" style="stroke:#181818;stroke-width:1.0;"/><text fill="#000000" font-family="sans-serif" font-size="13" lengthAdjust="spacing" textLength="57" x="414" y="404.897">&#171;include&#187;</text></g><!--reverse link UC4 to UC4_3--><g id="link_UC4_UC4_3"><path d="M356.7289,375.1072 C413.1089,374.0472 478.21,372.84 534.62,371.79 " fill="none" id="UC4-backto-UC4_3" style="stroke:#181818;stroke-width:1.0;stroke-dasharray:7.0,7.0;"/><polygon fill="#181818" points="350.73,375.22,359.8036,379.0501,355.7291,375.126,359.6532,371.0515,350.73,375.22" style="stroke:#181818;stroke-width:1.0;"/><text fill="#000000" font-family="sans-serif" font-size="13" lengthAdjust="spacing" textLength="56" x="414.5" y="369.897">&#171;extend&#187;</text></g><!--link UC5 to UC5_1--><g id="link_UC5_UC5_1"><path d="M337.2,467.34 C354.44,473.32 371.01,482.36 383,496 C433.66,553.62 376.18,598.69 413,666 C438.81,713.19 455.12,721.63 502,748 C521.32,758.87 538.3157,765.2223 559.2957,770.8623 " fill="none" id="UC5-to-UC5_1" style="stroke:#181818;stroke-width:1.0;stroke-dasharray:7.0,7.0;"/><polygon fill="#181818" points="565.09,772.42,557.437,766.2207,560.2614,771.1219,555.3601,773.9464,565.09,772.42" style="stroke:#181818;stroke-width:1.0;"/><text fill="#000000" font-family="sans-serif" font-size="13" lengthAdjust="spacing" textLength="57" x="414" y="661.897">&#171;include&#187;</text></g><!--link UC5 to UC5_2--><g id="link_UC5_UC5_2"><path d="M334.73,468.4 C352.38,474.33 369.75,483.08 383,496 C412.59,524.84 389.34,550.12 413,584 C442.13,625.71 457.65,631.07 502,656 C518.01,665 530.4732,670.677 547.9232,677.137 " fill="none" id="UC5-to-UC5_2" style="stroke:#181818;stroke-width:1.0;stroke-dasharray:7.0,7.0;"/><polygon fill="#181818" points="553.55,679.22,546.4985,672.3442,548.861,677.4841,543.7211,679.8466,553.55,679.22" style="stroke:#181818;stroke-width:1.0;"/><text fill="#000000" font-family="sans-serif" font-size="13" lengthAdjust="spacing" textLength="57" x="414" y="579.897">&#171;include&#187;</text></g><!--link UC5 to UC5_3--><g id="link_UC5_UC5_3"><path d="M319.47,472.35 C340.22,478.6 363,486.55 383,496 C440.17,523.02 444.91,546.81 502,574 C521.13,583.11 537.0745,589.116 557.0845,595.386 " fill="none" id="UC5-to-UC5_3" style="stroke:#181818;stroke-width:1.0;stroke-dasharray:7.0,7.0;"/><polygon fill="#181818" points="562.81,597.18,555.4178,590.6719,558.0387,595.685,553.0257,598.3059,562.81,597.18" style="stroke:#181818;stroke-width:1.0;"/><text fill="#000000" font-family="sans-serif" font-size="13" lengthAdjust="spacing" textLength="57" x="414" y="509.897">&#171;include&#187;</text></g><!--link profesor to UC1--><g id="link_profesor_UC1"><path d="M39.59,416.25 C48.14,349.23 68.63,217.94 101,186 C121.43,165.84 145.0671,157.2651 172.7071,153.0951 " fill="none" id="profesor-to-UC1" style="stroke:#181818;stroke-width:1.0;"/><polygon fill="#181818" points="178.64,152.2,169.144,149.5874,173.6959,152.9459,170.3374,157.4979,178.64,152.2" style="stroke:#181818;stroke-width:1.0;"/></g><!--link profesor to UC2--><g id="link_profesor_UC2"><path d="M37.36,416.1 C42.19,371.59 56.82,300.54 101,260 C120.41,242.19 141.056,233.734 166.516,228.654 " fill="none" id="profesor-to-UC2" style="stroke:#181818;stroke-width:1.0;"/><polygon fill="#181818" points="172.4,227.48,162.7913,225.3184,167.4967,228.4584,164.3567,233.1637,172.4,227.48" style="stroke:#181818;stroke-width:1.0;"/></g><!--link profesor to UC3--><g id="link_profesor_UC3"><path d="M47.58,416.45 C57.91,390.19 75.11,357 101,337 C121.05,321.51 140.7457,313.4881 165.1457,307.8181 " fill="none" id="profesor-to-UC3" style="stroke:#181818;stroke-width:1.0;"/><polygon fill="#181818" points="170.99,306.46,161.3182,304.6009,166.1198,307.5917,163.129,312.3933,170.99,306.46" style="stroke:#181818;stroke-width:1.0;"/></g><!--link profesor to UC4--><g id="link_profesor_UC4"><path d="M62.3,436.97 C73.83,429.6 87.66,421.61 101,416 C125.86,405.55 148.3969,398.7555 173.8369,392.6255 " fill="none" id="profesor-to-UC4" style="stroke:#181818;stroke-width:1.0;"/><polygon fill="#181818" points="179.67,391.22,169.9834,389.4396,174.8091,392.3913,171.8574,397.217,179.67,391.22" style="stroke:#181818;stroke-width:1.0;"/></g><!--link profesor to UC5--><g id="link_profesor_UC5"><path d="M62.17,456 C86.02,456 116.2,456 150.67,456 " fill="none" id="profesor-to-UC5" style="stroke:#181818;stroke-width:1.0;"/><polygon fill="#181818" points="156.67,456,147.67,452,151.67,456,147.67,460,156.67,456" style="stroke:#181818;stroke-width:1.0;"/></g><!--link profesor to UC6--><g id="link_profesor_UC6"><path d="M62.03,474.32 C73.64,481.56 87.6,489.45 101,495 C127.31,505.89 151.62,513.0138 178.1,519.2538 " fill="none" id="profesor-to-UC6" style="stroke:#181818;stroke-width:1.0;"/><polygon fill="#181818" points="183.94,520.63,176.0974,514.6723,179.0733,519.4832,174.2625,522.4591,183.94,520.63" style="stroke:#181818;stroke-width:1.0;"/></g><!--link profesor to UC7--><g id="link_profesor_UC7"><path d="M48.1,495.5 C58.54,521.01 75.66,552.89 101,572 C122.03,587.86 143.075,595.8018 168.395,601.0518 " fill="none" id="profesor-to-UC7" style="stroke:#181818;stroke-width:1.0;"/><polygon fill="#181818" points="174.27,602.27,166.2696,596.5261,169.3741,601.2549,164.6453,604.3594,174.27,602.27" style="stroke:#181818;stroke-width:1.0;"/></g><!--link profesor to UC8--><g id="link_profesor_UC8"><path d="M38.15,495.58 C43.69,538.56 58.95,606.35 101,646 C116.16,660.3 130.0077,668.0644 150.0177,674.4944 " fill="none" id="profesor-to-UC8" style="stroke:#181818;stroke-width:1.0;"/><polygon fill="#181818" points="155.73,676.33,148.3852,669.7684,150.9697,674.8003,145.9378,677.3848,155.73,676.33" style="stroke:#181818;stroke-width:1.0;"/></g><!--link profesor to UC9--><g id="link_profesor_UC9"><path d="M39.65,495.71 C48.36,563.44 69.16,697.25 101,731 C113.77,744.54 124.7761,751.9601 142.3061,758.7601 " fill="none" id="profesor-to-UC9" style="stroke:#181818;stroke-width:1.0;"/><polygon fill="#181818" points="147.9,760.93,140.9558,753.9459,143.2384,759.1217,138.0626,761.4044,147.9,760.93" style="stroke:#181818;stroke-width:1.0;"/></g><!--SRC=[ZPHBQjn048RtEaKnUmz4qlWHXe71CMOM0PEGR4r5NPBRIDsYMnf2GWwJ0sGHSeIvM4gQrgFRYibEglhghySlL5BUGAF1oEAf0I4DPOtKAeemQxI1rOFHELbjLe0MQlSIHHs6gYW9LX-bRQX240HxspshJE8AlaS0hQKCBJC79Jbem9ALfp-g5_jq-sQEt9Fj6ZEKjSPgwvXupdoWWXiOPd3MgUUIEVTPsXPB-Or1LaLn-iNQd79ikjoN7reXKJKqW9ivo9Se35Pk2wr6wjANKzGDQAZMPbAwcZFljP0vppDV0sgqA8PjhkVuhLQvBDfEjKPp-bbHOxJbUvVdKxcQ6wwPb-rFlv7z1DNIKNja_EXT_ax8XhMbohMfCEiCUY4UFtf6x4ts98-3LoEJ12Cyy4u6IjvnjCblVQYwAotwsJVqJ2NUNvkCL8FFP7bU8OzIiD7ZbLDVtQ-0mhGrbYFgBNGG33bJU0xHZpB99l-uxVJ935_C_vnsgSoRvXtNCFO5dn5mYNRpyCrXlTwTBOMtiDrAbPMjeDqkoCQlPfCNsHv8790iYdVHxNfzzghFqzVkT5DzwkhJnVef6ozcpzgf6oxKthZgpQBsb8rVpOQB_uYYuHy75nUx_XyL1E8ma8I1D0nimi1b6BWA0zTXu2Rw2m00]--></g></svg>